<?xml version="1.0" encoding="UTF-8"?>
<svg xmlns="http://www.w3.org/2000/svg" xmlns:xlink="http://www.w3.org/1999/xlink" width="20px" height="20px" viewBox="0 0 20 20" version="1.1">
<g id="surface1">
<path style=" stroke:none;fill-rule:evenodd;fill:rgb(100%,100%,100%);fill-opacity:1;" d="M 16.667969 0.832031 C 18.046875 0.832031 19.167969 1.953125 19.167969 3.332031 L 19.167969 16.667969 C 19.167969 18.046875 18.046875 19.167969 16.667969 19.167969 L 3.332031 19.167969 C 1.953125 19.167969 0.832031 18.046875 0.832031 16.667969 L 0.832031 3.332031 C 0.832031 1.953125 1.953125 0.832031 3.332031 0.832031 Z M 16.667969 2.5 C 17.125 2.5 17.5 2.875 17.5 3.332031 L 17.5 16.667969 C 17.5 17.125 17.125 17.5 16.667969 17.5 L 12.5 17.5 L 12.5 11.667969 L 14.230469 11.667969 C 14.589844 11.667969 14.90625 11.4375 15.019531 11.097656 L 15.390625 9.988281 C 15.523438 9.585938 15.222656 9.167969 14.796875 9.167969 L 12.5 9.167969 L 12.5 7.5 C 12.5 7.082031 12.917969 6.667969 13.332031 6.667969 L 15 6.667969 C 15.460938 6.667969 15.832031 6.292969 15.832031 5.832031 L 15.832031 5.261719 C 15.832031 4.992188 15.660156 4.75 15.402344 4.683594 C 14.308594 4.394531 13.332031 4.394531 13.332031 4.394531 C 11.25 4.394531 10 5.832031 10 7.082031 L 10 9.167969 L 8.332031 9.167969 C 7.875 9.167969 7.5 9.539062 7.5 10 L 7.5 10.832031 C 7.5 11.292969 7.875 11.667969 8.332031 11.667969 L 10 11.667969 L 10 17.5 L 3.332031 17.5 C 2.875 17.5 2.5 17.125 2.5 16.667969 L 2.5 3.332031 C 2.5 2.875 2.875 2.5 3.332031 2.5 Z M 16.667969 2.5 "/>
</g>
</svg>
