<?xml version="1.0" encoding="UTF-8"?>
<svg xmlns="http://www.w3.org/2000/svg" xmlns:xlink="http://www.w3.org/1999/xlink" width="20px" height="20px" viewBox="0 0 20 20" version="1.1">
<g id="surface1">
<path style="fill-rule:nonzero;fill:rgb(100%,100%,100%);fill-opacity:1;stroke-width:0.00024;stroke-linecap:butt;stroke-linejoin:miter;stroke:rgb(100%,100%,100%);stroke-opacity:1;stroke-miterlimit:4;" d="M 24 4.5 L 24 19.5 C 24 20.348438 23.348438 21 22.5 21 L 21 21 L 21 7.3875 L 12 13.851563 L 3 7.3875 L 3 21 L 1.5 21 C 0.646875 21 0 20.348438 0 19.5 L 0 4.5 C 0 4.073438 0.164063 3.698438 0.43125 3.43125 C 0.698438 3.159375 1.078125 3 1.5 3 L 2.001563 3 L 12 10.251563 L 21.998438 3 L 22.5 3 C 22.926563 3 23.301563 3.164063 23.56875 3.43125 C 23.840625 3.698438 24 4.073438 24 4.5 Z M 24 4.5 " transform="matrix(0.833333,0,0,0.833333,0,0)"/>
</g>
</svg>
