<?xml version="1.0" encoding="UTF-8"?>
<svg xmlns="http://www.w3.org/2000/svg" xmlns:xlink="http://www.w3.org/1999/xlink" width="20px" height="20px" viewBox="0 0 20 20" version="1.1">
<g id="surface1">
<path style="fill-rule:nonzero;fill:rgb(100%,100%,100%);fill-opacity:1;stroke-width:1;stroke-linecap:butt;stroke-linejoin:miter;stroke:rgb(100%,100%,100%);stroke-opacity:1;stroke-miterlimit:4;" d="M 6.501563 8.001563 C 7.326563 8.001563 8.001563 7.326563 8.001563 6.501563 C 8.001563 5.671875 7.326563 5.001563 6.501563 5.001563 C 5.671875 5.001563 5.001563 5.671875 5.001563 6.501563 C 5.001563 7.326563 5.671875 8.001563 6.501563 8.001563 Z M 6.501563 8.001563 " transform="matrix(0.833333,0,0,0.833333,0,0)"/>
<path style="fill-rule:nonzero;fill:rgb(100%,100%,100%);fill-opacity:1;stroke-width:1;stroke-linecap:butt;stroke-linejoin:miter;stroke:rgb(100%,100%,100%);stroke-opacity:1;stroke-miterlimit:4;" d="M 5.001563 9.998438 C 5.001563 9.45 5.446875 9 6 9 L 6.998438 9 C 7.551563 9 8.001563 9.45 8.001563 9.998438 L 8.001563 18 C 8.001563 18.553125 7.551563 18.998438 6.998438 18.998438 L 6 18.998438 C 5.446875 18.998438 5.001563 18.553125 5.001563 18 Z M 5.001563 9.998438 " transform="matrix(0.833333,0,0,0.833333,0,0)"/>
<path style="fill-rule:nonzero;fill:rgb(100%,100%,100%);fill-opacity:1;stroke-width:1;stroke-linecap:butt;stroke-linejoin:miter;stroke:rgb(100%,100%,100%);stroke-opacity:1;stroke-miterlimit:4;" d="M 11.001563 18.998438 L 12 18.998438 C 12.553125 18.998438 12.998438 18.553125 12.998438 18 L 12.998438 13.5 C 12.998438 12 15.998438 11.001563 15.998438 12.998438 L 15.998438 18 C 15.998438 18.553125 16.448438 18.998438 17.001563 18.998438 L 18 18.998438 C 18.553125 18.998438 18.998438 18.553125 18.998438 18 L 18.998438 12 C 18.998438 9.998438 17.498438 9 15.501563 9 C 13.5 9 12.998438 10.5 12.998438 10.5 L 12.998438 9.998438 C 12.998438 9.45 12.553125 9 12 9 L 11.001563 9 C 10.448438 9 9.998438 9.45 9.998438 9.998438 L 9.998438 18 C 9.998438 18.553125 10.448438 18.998438 11.001563 18.998438 Z M 11.001563 18.998438 " transform="matrix(0.833333,0,0,0.833333,0,0)"/>
<path style="fill-rule:evenodd;fill:rgb(100%,100%,100%);fill-opacity:1;stroke-width:1;stroke-linecap:butt;stroke-linejoin:miter;stroke:rgb(100%,100%,100%);stroke-opacity:1;stroke-miterlimit:4;" d="M 20.001563 0.998438 C 21.65625 0.998438 23.001563 2.34375 23.001563 3.998438 L 23.001563 20.001563 C 23.001563 21.65625 21.65625 23.001563 20.001563 23.001563 L 3.998438 23.001563 C 2.34375 23.001563 0.998438 21.65625 0.998438 20.001563 L 0.998438 3.998438 C 0.998438 2.34375 2.34375 0.998438 3.998438 0.998438 Z M 20.001563 3 C 20.55 3 21 3.45 21 3.998438 L 21 20.001563 C 21 20.55 20.55 21 20.001563 21 L 3.998438 21 C 3.45 21 3 20.55 3 20.001563 L 3 3.998438 C 3 3.45 3.45 3 3.998438 3 Z M 20.001563 3 " transform="matrix(0.833333,0,0,0.833333,0,0)"/>
</g>
</svg>
